<?xml version="1.0" encoding="UTF-8"?>
<svg xmlns="http://www.w3.org/2000/svg" width="102.283" height="56.584" viewBox="0 0 102.283 56.584" preserveAspectRatio="xMinYMin meet">
	<g id="Group_17059" data-name="Group 17059" transform="translate(10977.129 -327.678)">
		<path id="Path_22979" data-name="Path 22979" d="M659.614,291.261v8.151h1.337v-4.373a2.533,2.533,0,0,1,2.508-2.657,2.316,2.316,0,0,1,2.475,2.542v4.488h1.353v-4.5a3.46,3.46,0,0,0-3.581-3.779,3.33,3.33,0,0,0-2.788,1.42l-.066-1.3h-1.238Zm-8.959,4.091a2.84,2.84,0,1,0,5.676,0,2.834,2.834,0,1,0-5.659,0Zm7,0a4.175,4.175,0,1,1-4.175-4.24,4.07,4.07,0,0,1,4.192,4.24Zm-4.933-5.379h1.221l1.633-2.062v-.05h-1.65l-1.2,2.03Zm-6.732,1.254h1.353v8.184h-1.353Zm-.2-2.458a.891.891,0,0,0,1.782.017.891.891,0,0,0-1.782-.017m-1.518,9.553-.908-.907a2.925,2.925,0,0,1-2.128.858,2.769,2.769,0,0,1-2.9-2.937,2.8,2.8,0,0,1,2.92-2.937,2.964,2.964,0,0,1,2.063.825l.858-.891a4.068,4.068,0,0,0-2.954-1.221,4.224,4.224,0,1,0,0,8.448,4.152,4.152,0,0,0,3.036-1.254ZM630.707,292.4c3.91,0,3.91,5.973-.017,5.973a2.979,2.979,0,0,1,0-5.956Zm2.986,7.013H635v-8.151h-1.32l-.017,1.485a3.417,3.417,0,0,0-3.019-1.618,4.241,4.241,0,0,0-.017,8.482,3.449,3.449,0,0,0,3-1.65l.033,1.485Zm-15.972-4.307a2.965,2.965,0,1,1,2.987,2.838,2.783,2.783,0,0,1-2.987-2.838m.066,5.676h-1.3c-.049,2.2,1.716,3.481,4.175,3.481,2.161,0,4.256-1.072,4.256-3.184a2.711,2.711,0,0,0-2.243-2.657,3.345,3.345,0,0,0,2.293-3.316,3.642,3.642,0,0,0-1.056-2.64l.924-1.089-.957-.759L623,291.673a4.441,4.441,0,0,0-2.31-.61,4.058,4.058,0,0,0-4.306,4.042c0,2.541,1.749,4.026,4.306,4.026,1.518,0,2.855.644,2.855,1.964,0,1.419-1.468,1.93-2.871,1.93-1.485-.016-2.888-.66-2.888-2.244m-4.735-9.554h1.353v8.184h-1.353Zm-.2-2.458a.891.891,0,0,0,1.782.017.891.891,0,0,0-1.782-.017m-4.059.116-1.353.148v2.244h-1.633v1.155h1.633v4.307c0,1.8.825,2.821,2.574,2.788a4,4,0,0,0,1.584-.4l-.4-1.122a2.649,2.649,0,0,1-1.138.3c-.974,0-1.287-.61-1.287-1.567v-4.307h2.541v-1.155h-2.525Zm-5.28,4.174.776-.891a4.341,4.341,0,0,0-3.1-1.089c-1.568-.016-3.317.66-3.3,2.393,0,1.732,1.683,2.145,3.25,2.343,1.254.148,2.211.412,2.2,1.3-.033.99-1.172,1.271-2.063,1.271a3.763,3.763,0,0,1-2.9-1.254l-.775.94a4.448,4.448,0,0,0,3.646,1.535c1.832,0,3.383-.809,3.416-2.443.033-2.013-1.947-2.309-3.432-2.491-1.023-.115-2.013-.363-2.03-1.2-.016-.809.891-1.2,2.013-1.189a3.133,3.133,0,0,1,2.294.793Zm-8.415,1.667h-5.643a2.781,2.781,0,0,1,2.888-2.426,2.463,2.463,0,0,1,2.755,2.442Zm.809,3.382-.908-.825a3.569,3.569,0,0,1-2.59,1.023,2.761,2.761,0,0,1-2.954-2.442h6.93c.314-3.25-1.584-4.785-4.075-4.785a4.241,4.241,0,1,0,.066,8.481,4.7,4.7,0,0,0,3.514-1.452Zm-16.995-6.847,3.448,8.167h1.485l3.432-8.167h-1.485l-1.32,3.2-1.369,3.514-1.386-3.531-1.32-3.184Zm-8.844,0v8.151h1.336v-4.373a2.533,2.533,0,0,1,2.508-2.657,2.316,2.316,0,0,1,2.475,2.542v4.488h1.353v-4.5a3.46,3.46,0,0,0-3.58-3.779,3.333,3.333,0,0,0-2.789,1.42l-.066-1.3H570.07Zm-3.828-.034h1.353v8.184h-1.353Zm-.2-2.458a.891.891,0,0,0,1.782.017.891.891,0,0,0-1.782-.017" transform="translate(-11542.134 80)" fill="#ffc700"></path>
		<rect id="Rectangle_1815" data-name="Rectangle 1815" width="22.47" height="0.473" transform="translate(-10965.999 357.181) rotate(-51.193)" fill="#ffc700"></rect>
		<path id="Path_22980" data-name="Path 22980" d="M565.58,257.379h3.936v23.808H565.58ZM565,250.227c0,3.456,5.184,3.456,5.184.048,0-3.456-5.184-3.456-5.184-.048" transform="translate(-11542.134 80)" fill="#ffc700"></path>
	</g>
</svg>
